/* XPM */
static char *_4acf657993e468998d805cdc3504c04[] = {
/* columns rows colors chars-per-pixel */
"32 32 246 2 ",
"   c #ADE34F",
".  c #ACE24F",
"X  c #8DD24D",
"o  c #9AD84E",
"O  c #A9E14F",
"+  c #A2DD4E",
"@  c #9BD94E",
"#  c #81CA4C",
"$  c #ABE24F",
"%  c #ACE34F",
"&  c #A0DC4E",
"*  c #A3DD4E",
"=  c #A5DF4F",
"-  c #A0D14F",
";  c #AFDA51",
":  c #ABE04F",
">  c #9BD754",
",  c #97D455",
"<  c #A0DC4F",
"1  c #92D156",
"2  c #AAE150",
"3  c #A7E04F",
"4  c #A3CC4F",
"5  c #BFA25B",
"6  c #C6B45D",
"7  c #A4D450",
"8  c #9CDA4E",
"9  c #80C55B",
"0  c #5BAD64",
"q  c #70BD57",
"w  c #4FA469",
"e  c #95D550",
"r  c #A6DF4F",
"t  c #A1C94F",
"y  c #C6BA5C",
"u  c #CCB160",
"i  c #B3C053",
"p  c #ADE44F",
"a  c #A4DE4F",
"s  c #A5DE4F",
"d  c #99D84E",
"f  c #7FC657",
"g  c #76C058",
"h  c #7AC357",
"j  c #9BC74F",
"k  c #ACB355",
"l  c #9DD050",
"z  c #99D44F",
"x  c #9BCF4F",
"c  c #A2D64F",
"v  c #AAE24F",
"b  c #A1DC4F",
"n  c #A6DF50",
"m  c #A9E050",
"M  c #96D454",
"N  c #86CA56",
"B  c #A3DD51",
"V  c #8BCD58",
"C  c #ACE14F",
"Z  c #A5DB4F",
"A  c #A8E04F",
"S  c #8ED24D",
"D  c #A9AC57",
"F  c #C3A25D",
"G  c #BAAD5C",
"H  c #9ECA51",
"J  c #A4DE4E",
"K  c #91D34F",
"L  c #6DBA5B",
"P  c #78C257",
"I  c #75C057",
"U  c #A3DE4E",
"Y  c #95D64E",
"T  c #A39D54",
"R  c #BFA95A",
"E  c #C99E5F",
"W  c #B3BD58",
"Q  c #91D44D",
"!  c #88CC54",
"~  c #80CA4F",
"^  c #94D64E",
"/  c #9DDA4E",
"(  c #ADE24F",
")  c #ADE14F",
"_  c #9AD94E",
"`  c #9EDB4E",
"'  c #AAE14F",
"]  c #D2BE95",
"[  c #B49E6E",
"{  c #C4B9A0",
"}  c #F6DAA0",
"|  c #FBD077",
" . c #F5CA73",
".. c #DBB569",
"X. c #A3DE4F",
"o. c #F8D99D",
"O. c #FDD178",
"+. c #FCD685",
"@. c #81CB4C",
"#. c #98D74E",
"$. c #97D74E",
"%. c #F6DCA8",
"&. c #FDE4AE",
"*. c #A1DD4E",
"=. c #8AD04D",
"-. c #8FD34D",
";. c #9FDB4E",
":. c #FDDE9D",
">. c #F0E5D0",
",. c #96D74E",
"<. c #FDD37D",
"1. c #FDE1A6",
"2. c #FDE0A2",
"3. c #F2E1BE",
"4. c #77BF5E",
"5. c #B09D75",
"6. c #F5D593",
"7. c #FAE5B6",
"8. c #ABE250",
"9. c #FCDB96",
"0. c #FDD37F",
"q. c #FCDEA0",
"w. c #D2BE94",
"e. c #EBC26E",
"r. c #FDD27A",
"t. c #F9D998",
"y. c #F0E5CF",
"u. c #FDDA93",
"i. c #FDD88B",
"p. c #FCD480",
"a. c #F6DBA5",
"s. c #F7DBA1",
"d. c #F5E3BE",
"f. c #FDD88C",
"g. c #FDDA92",
"h. c #FCCE6C",
"j. c #FDD37E",
"k. c #FAE0AA",
"l. c #FADA98",
"z. c #FDD27B",
"x. c #FDD98D",
"c. c #FBCC68",
"v. c #FDCF73",
"b. c #FDD17A",
"n. c #FAD589",
"m. c #F8D99B",
"M. c #F1E3C6",
"N. c #F4DFB6",
"B. c #FBDDA0",
"V. c #FDD78B",
"C. c #FDD88D",
"Z. c #FDE0A3",
"A. c #FDD179",
"S. c #FDD076",
"D. c #F9CC6D",
"F. c #FCD177",
"G. c #FDD073",
"H. c #FBCF77",
"J. c #FDD279",
"K. c #FCD078",
"L. c #F8CD76",
"P. c #FDD47F",
"I. c #FCCC68",
"U. c #F5D48F",
"Y. c #FBCA60",
"T. c #FDCE6D",
"R. c #EFC777",
"E. c #B19D71",
"W. c #CEAA61",
"Q. c #D9B977",
"!. c #A08C63",
"~. c #E8C06E",
"^. c #FDD177",
"/. c #FDCE70",
"(. c #FBC85C",
"). c #FAE1A8",
"_. c #FCCB65",
"`. c #FCCC69",
"'. c #DBB37A",
"]. c #655642",
"[. c #AF9254",
"{. c #B09459",
"}. c #62533A",
"|. c #DEB577",
" X c #FCCB67",
".X c #FBC75A",
"XX c #FCE1A6",
"oX c #FBCC66",
"OX c #FCC961",
"+X c #FDCF71",
"@X c #FDD07C",
"#X c #F6C3A9",
"$X c #D7AC90",
"%X c #F1C873",
"&X c #DDB287",
"*X c #F8C4B0",
"=X c #FDD07F",
"-X c #FCC95F",
";X c #FAC963",
":X c #F4D799",
">X c #F9D17C",
",X c #FBC85B",
"<X c #FCCB64",
"1X c #FCCF70",
"2X c #F4CA74",
"3X c #EEC571",
"4X c #FCCE6F",
"5X c #FCCA61",
"6X c #FBD27D",
"7X c #9FDC4E",
"8X c #FCD47E",
"9X c #FBCA61",
"0X c #FCC95E",
"qX c #FCCC67",
"wX c #FCCE6E",
"eX c #FDCF72",
"rX c #FDD074",
"tX c #F9CD73",
"yX c #F4C971",
"uX c #FDCF70",
"iX c #FCCD6C",
"pX c #FBC75B",
"aX c #F8CE76",
"sX c #F6E0B4",
"dX c #8DD052",
"fX c #98D84E",
"gX c #F2DCAC",
"hX c #F6D38B",
"jX c #F8CE78",
"kX c #FCCF72",
"lX c #FCCD6A",
"zX c #FBC95F",
"xX c #FBCB64",
"cX c #FBCD6C",
"vX c #FCD27B",
"bX c #F9DA9A",
"nX c #F0E1C2",
"mX c #AEE34F",
"MX c #ADDF4F",
"NX c #ADDE4F",
"BX c #AADC4F",
"VX c #F5DDAC",
"CX c #F4DBA8",
"ZX c #F3DCAE",
"AX c #A1DC4E",
"SX c #93D54D",
/* pixels */
"    . X o O +                       @ # $                       ",
"    % & . $ *                       = &                 - ; :   ",
"                      % > , < 1 2                   3 4 5 6 7   ",
"                      8 9 0 q w e $                 r t y u i p ",
"        a s             d f g h < &                     j k l   ",
"    $ $ z x c v         $ b n m M N B V n               C Z A   ",
"    @ S D F G H J =             K L P I @ $                   % ",
"    U Y T R E W Q +             = ! ~ ^ $                   a / ",
"        ( ( ) ( %                   %                     & / _ ",
"  ` r   '                                               ] [ { $ ",
"  _ 8   / .                                           } |  ...  ",
"                                            X.`       o.O.O.+.  ",
"                      + % a '               + @.#.$.  %.O.O.&.  ",
"                      *.*.=.-.+ $ v v       . ;.X.+   :.O.O.>.  ",
"                        & #.#.O / ,.,.                <.O.O.O   ",
"                                a & &             $ 1.2.O.O.3.  ",
"  4.5.6.7.8.                                      9.+ 0.O.O.q.  ",
"  w.e.O.O.r.t.y.                                u.  i.O.O.O.p.  ",
"  a.O.O.O.O.O.r.s.                          d.f.  g.O.O.O.O.h.  ",
"    O.O.O.O.O.O.O.j.k.                    l.z.1.x.O.O.O.O.O.c.  ",
"    v.O.O.O.O.O.O.O.b.n.m.        M.N.B.V.C.Z.0.A.O.O.O.O.S.D.  ",
"    F.G.O.O.O.O.O.O.O.O.H.O.O.J.A.O.O.K.L.0.P.O.O.O.O.O.O.I.U.  ",
"      Y.T.O.O.O.O.O.O.R.E.W.O.O.O.O.O.Q.!.~.O.O.O.O.O.^./.(.    ",
"      )._.`.^.O.O.O.A.'.].[.O.O.O.O.O.{.}.|.A.O.O.O.S. X.XXX    ",
"          oXOX+XO.O.@X#X$X%XO.O.O.O.O.%X&X*X=XO.^./.-X;X:X      ",
"        a + >X,X<X1X^.O.O.O.O.2X3XO.O.O.A.@XS.4X5X.X6X$       $ ",
"        O O 7X8 8X9X0XqXwXeXrXtXyXrXeXuXiX<X(.pXaXsXdX`       fX",
"                    gXhXjXkXlX<XY.0XzXxXcXvXbXnX/ O ` mX      & ",
"                      '   MXNXBXVXCXZX                          ",
". .                                                             ",
"AX@ = r                                               = $       ",
"  & ` &                 ` $                     ` $   SX#.$     "
};
