/* XPM */
static char *_93df8f02e7b46208513b7f7d543dc47[] = {
/* columns rows colors chars-per-pixel */
"32 32 120 2 ",
"   c #3E3B07",
".  c #5D2D0B",
"X  c #403A07",
"o  c #4F3309",
"O  c #443808",
"+  c #52320A",
"@  c #563D0E",
"#  c #622C0C",
"$  c #66340F",
"%  c #673510",
"&  c #6A3510",
"*  c #0B4F00",
"=  c #124D01",
"-  c #1B4903",
";  c #075200",
":  c #0A5101",
">  c #0C5D01",
",  c #135905",
"<  c #204703",
"1  c #2D4205",
"2  c #204803",
"3  c #314005",
"4  c #225507",
"5  c #0D6301",
"6  c #0F7101",
"7  c #117C01",
"8  c #266B0E",
"9  c #296B0F",
"0  c #26740E",
"q  c #29770F",
"w  c #29780F",
"e  c #2A6D10",
"r  c #3F6B14",
"t  c #2E7213",
"y  c #2B7910",
"u  c #327314",
"i  c #5B5A16",
"p  c #684517",
"a  c #6E4A17",
"s  c #6E491A",
"d  c #74431B",
"f  c #714C18",
"g  c #6C5319",
"h  c #645F1A",
"j  c #71511B",
"k  c #74581C",
"l  c #406613",
"z  c #416E16",
"x  c #827B29",
"c  c #178205",
"v  c #198406",
"b  c #128B01",
"n  c #139001",
"m  c #159D02",
"M  c #15A002",
"N  c #4B8B22",
"B  c #518E22",
"V  c #4F9022",
"C  c #529123",
"Z  c #66A62E",
"A  c #69A52E",
"S  c #69A92E",
"D  c #7AA532",
"F  c #74B53C",
"G  c #7DBC3D",
"H  c #70B340",
"J  c #6BB85B",
"K  c #76C059",
"L  c #8D9333",
"P  c #909935",
"I  c #80A333",
"U  c #86BF3C",
"Y  c #89BF3E",
"T  c #90B13E",
"R  c #9BB73F",
"E  c #91B93F",
"W  c #87C13D",
"Q  c #89C23E",
"!  c #81B141",
"~  c #89B443",
"^  c #97BE42",
"/  c #BFA25B",
"(  c #ACB355",
")  c #BEB558",
"_  c #C6B45D",
"`  c #CCB160",
"'  c #8AC541",
"]  c #8FC941",
"[  c #9FC243",
"{  c #91C941",
"}  c #8DD24D",
"|  c #93D54D",
" . c #98D74E",
".. c #9DDA4E",
"X. c #80C657",
"o. c #85C959",
"O. c #8DD052",
"+. c #92D256",
"@. c #9DD050",
"#. c #A0C444",
"$. c #A3CC4F",
"%. c #A1D44E",
"&. c #A6DC4C",
"*. c #A6DD4C",
"=. c #A4DE4F",
"-. c #A2DC4D",
";. c #A9DB4C",
":. c #A9DA4C",
">. c #B3C053",
",. c #A4D450",
"<. c #AFDA51",
"1. c #A7E04F",
"2. c #A9E14F",
"3. c #ABE04F",
"4. c #ABE24F",
"5. c #ACE24F",
"6. c #ACE34F",
"7. c #ADE34F",
"8. c #ADE44F",
"9. c #ADE34F",
/* pixels */
"7.7.7.}  .2.-.7.7.7.7.U u * * * * * * * * u U 7.7.7.7.7.7.7.7.7.",
"7.7.7.-.7.-.' U U Q Q S y 5 5 5 5 5 5 5 5 y S Q Q { &.7.%.<.2.7.",
"7.7.7.7.7.{ B u u u u y v b b b b b b b b v y u u B ' $./ _ ,.7.",
"7.7.7.&.{ S w 5 5 5 5 6 n M m m m m m m M n 6 5 5 w Z ~ ) ` >.8.",
"7.7.7.{ N 0 c b b b b b m m m m m m m m m m b b b c 0 B ! ( @.7.",
"7.&.{ Z 0 6 b M m m m m m m m m m m m m m m m m M b 6 q Z ' -.7.",
"7.{ N 0 7 b m m m m m m m m m m m m m m m m m m m m b c 0 B { 7.",
"Q A 8 5 b M m m m m m m m m m m m m m m m m m m m m m b 6 y Z G ",
"u 9 , 5 b m m m m m m m m m m m m m m m m m m m m m m m b v w t ",
": * * 5 b m m m m m m m b b b b m m m m m m m m m m m m M b 5 * ",
": * * 5 b M m m m m m n 6 5 5 6 n m m m m m m m m m m m m b 5 * ",
": : * > 7 n m m m m n 7 > * * > 7 n m m m m m m m m m m m b 5 * ",
": : : : > 6 n M M n 6 > : * * : > 6 n m m m m m m m m m M b 5 * ",
": : : * * > 7 b b 7 > * * : : * * > 7 n m m m m b b b b b 7 > * ",
": : : : * : > 5 5 > : * : : : : * : > 6 n M M n 6 5 5 5 5 > : : ",
": : : : : : * * * * : : : : : : : * * > 7 b b 7 > * * * * * : : ",
": : : : : : : * * : : : : : : : : : * : > 5 5 > : * * * * : : : ",
": : : : : : : : : : : : : = - - * : : : * * * * : : : : : : : : ",
": : : : : : : : : : : : : - X   - ; : : : * * : : : : : : : : : ",
"u e , : : : : = - - * : : -   O 1 - * : : : : * - - = : : , e u ",
"Q A e : : : : -     - ; : * - 1 O   - : : ; ; -   X - : : e A Q ",
"7.{ C u u 8 , < o + 3 - * ; ; < + + < : - 2 - 1 O   - , 8 C { 7.",
"7.&.{ W Q Z 8 < o # +   - ; ; < o o - -   o o O 1 - * 8 Z { &.7.",
"7.7.7.7.7.] V r h f & + 3 4 e l @ + 1 1 + & f h z t t B { 7.7.7.",
"7.7.7.7.7.-.' F E L f . + i D I g . + + . f L ~ Y F H { &.7.7.7.",
"7.7.7.7.&.-. .|  .^ x a $ f L P j # # $ a x [ +.o.X.o.2.7.7.7.2.",
"7.7.7.7.2.2.....1.;.#.L p % d s % # # f L #.%...J K O...7.7.7. .",
"7.7.7.7.7.7.7.7.7.7.7.T j # # # # # # k R 7.7.7...2...7.7.7.7.-.",
"7.7.7.7.7.7.7.7.7.7.7.R k # # # # # # k R 7.7.7.7.7.7.7.7.7.7.7.",
"7.7.7.7.7.7.7.7.7.;.#.L f # # # # # # f L #.;.7.7.7.7.7.7.7.7.7.",
"-. .&.&.7.7.7.7.7.[ x a $ # # # # # # $ a x [ 7.7.7.7.&.2.7.7.7.",
"7.-...-.7.7.7.7.7.R k # # # # # # # # # # k R 7...2.7.|  .2.7.7."
};
