/* XPM */
static char *_97070dc4b7940b3aba8576f99c250b5[] = {
/* columns rows colors chars-per-pixel */
"32 32 180 2 ",
"   c #051705",
".  c #0B2B07",
"X  c #082607",
"o  c #1B2B0E",
"O  c #0C3709",
"+  c #0C3808",
"@  c #0A3007",
"#  c #1B2C11",
"$  c #1D3113",
"%  c #322F1C",
"&  c #233315",
"*  c #2B3E14",
"=  c #31301B",
"-  c #242916",
";  c #104F0D",
":  c #11540F",
">  c #135D0F",
",  c #365B1E",
"<  c #176E11",
"1  c #1A7B13",
"2  c #1A7513",
"3  c #2D7D1A",
"4  c #38731E",
"5  c #447024",
"6  c #796F3F",
"7  c #6F6E40",
"8  c #7A6241",
"9  c #7C7443",
"0  c #835945",
"q  c #8C5C4B",
"w  c #835546",
"e  c #925C4F",
"r  c #8D6549",
"t  c #8D6C49",
"y  c #886C46",
"u  c #92634C",
"i  c #956B4C",
"p  c #996B4E",
"a  c #847445",
"s  c #8D7B47",
"d  c #8D7C49",
"f  c #857843",
"g  c #96714C",
"h  c #9A714E",
"j  c #937B4A",
"k  c #917D47",
"l  c #966451",
"z  c #996651",
"x  c #9C6B52",
"c  c #9B7D51",
"v  c #A06F53",
"b  c #A37554",
"n  c #A57B53",
"m  c #AB7B55",
"M  c #A87654",
"N  c #B07F56",
"B  c #1C8314",
"V  c #1E8D16",
"C  c #1F9316",
"Z  c #278E16",
"A  c #229D16",
"S  c #339A18",
"D  c #24A617",
"F  c #29AB16",
"G  c #22A018",
"H  c #2FB716",
"J  c #38A31B",
"K  c #5A852B",
"L  c #6C9C38",
"P  c #57A32A",
"I  c #60B12C",
"U  c #6FA139",
"Y  c #75A136",
"T  c #79A73A",
"R  c #70BD36",
"E  c #31C518",
"W  c #33CC18",
"Q  c #33C917",
"!  c #35D318",
"~  c #38D518",
"^  c #3BDC18",
"/  c #39D117",
"(  c #3EE118",
")  c #41E618",
"_  c #45EC18",
"`  c #4AED1D",
"'  c #4AF01A",
"]  c #4DED20",
"[  c #53EE25",
"{  c #54F124",
"}  c #5AF12B",
"|  c #5CED30",
" . c #63F133",
".. c #6BF23C",
"X. c #6E9246",
"o. c #739742",
"O. c #61B25D",
"+. c #77BF5E",
"@. c #79C356",
"#. c #7DC459",
"$. c #72F343",
"%. c #7BF44B",
"&. c #77F04A",
"*. c #82AC3C",
"=. c #8D8347",
"-. c #858242",
";. c #95874A",
":. c #8F9047",
">. c #8C9C43",
",. c #929A46",
"<. c #9A9C4A",
"1. c #A19B4E",
"2. c #AC8356",
"3. c #AF8758",
"4. c #AF8D56",
"5. c #B28257",
"6. c #B48658",
"7. c #B58B59",
"8. c #B88E59",
"9. c #B28857",
"0. c #B6915A",
"q. c #BA945A",
"w. c #BD9A5C",
"e. c #87A644",
"r. c #92A645",
"t. c #99A349",
"y. c #95AD48",
"u. c #95A748",
"i. c #8EBF47",
"p. c #8BB644",
"a. c #95B446",
"s. c #95BF4F",
"d. c #9BBB49",
"f. c #9DB54A",
"g. c #A1BD4C",
"h. c #B9A757",
"j. c #BDA55B",
"k. c #B2B158",
"l. c #C09E5D",
"z. c #C3A45E",
"x. c #C5AA5F",
"c. c #C6B45D",
"v. c #C7AD60",
"b. c #C8AF60",
"n. c #C8B060",
"m. c #82C54D",
"M. c #94CC45",
"N. c #9BC54A",
"B. c #9CCA4A",
"V. c #96C545",
"C. c #8DD24D",
"Z. c #94D54E",
"A. c #98D64E",
"S. c #9CDA4E",
"D. c #80C756",
"F. c #8DCF54",
"G. c #8FD152",
"H. c #95D354",
"J. c #9BD754",
"K. c #A2CB4B",
"L. c #A1C14B",
"P. c #A3D34C",
"I. c #A3DD4E",
"U. c #AADD4E",
"Y. c #A5D650",
"T. c #ACDC51",
"R. c #84F454",
"E. c #8EF55E",
"W. c #87F358",
"Q. c #A7E04F",
"!. c #ADE34F",
"~. c #ABE250",
"^. c #94F564",
"/. c #9AF66A",
"(. c #97F468",
"). c #A6F676",
"_. c #B4F784",
"`. c #B7F887",
"'. c #BBF88B",
"]. c #C0F890",
/* pixels */
"!.!.!.C.S.!.I.!.!.!.!.!.!.!.!.!.!.!.S.m.!.!.!.!.!.!.!.!.!.!.!.!.",
"!.!.!.I.!.!.I.!.!.!.!.!.!.!.!.!.!.!.U.I.!.!.!.!.!.!.!.!.P.T.!.!.",
"!.!.!.!.!.!.!.!.!.!.!.!.J.H.I.H.~.!.!.!.!.!.!.!.!.!.Q.K.j.c.Y.!.",
"M.E ` ..' ' ' '  .(.].].].].].].].].].].].].)...{ ' ' ' } } ^ R ",
"I ( ' { ' ' %.{ $.%.^._.`.'.(.'.]./.`.`.'.(.E... ...} ' ' ' _ J ",
"P ) _ %.) ' | _ .. .&.%. .{ ..W.E.$.{ } %.R.} ..' [ { _ &.` ) S ",
"P Q ~ W _ ' ' ' _ { $.} R.' &.} ' W.' $.$. . ._ ' ' ' _ ! ! ! Z ",
"Y 2 V W ) W.{ _ .. ._ _ _ { ' ' ' ' { ' _ _ [ $._ _ (.) ^ A B 5 ",
"!.Y . H ) _ _ ^ ) ] ..( ) [ _ _ _ _ ] ` (  .} ) ^ ( _ ) / O , S.",
"!.S.T Z ^ ^ ^ Q ^ ) ) Q ~ ( _  .%._ ^ ^ E ) ) ^ ! ! ~ ^ F K !.!.",
"!.S.S.4 B D G 1 H W ! A A W ! ~ ~ ! ~ F C W ! W B C D B 3 B.!.!.",
"!.!.!.U.*   + . ; 1 C B : > B C V V < : 2 V B > O @ X o V.!.!.!.",
"!.!.!.!.P.*.*.*.K & $ # # % $ # # $ = - # # & , U L *.M.!.!.!.!.",
"!.!.!.!.!.!.!.!.P.8 u i h u r 0 w r u p i u 0 e.I.I.!.!.S.!.!.!.",
"!.!.!.!.!.!.!.!.a.i 6.q.3.z z b M z z n q.8.x ,.!.!.!.F.Z.I.!.!.",
"!.!.!.!.!.!.!.!.:.M w.9.b b 7.8.0.0.m b 3.w.5.k U.!.S.+.G.I.!.!.",
"!.+.@.A.H.~.!.K.t 6.x.b.x.z.q.m 2.9.z.z.b.x.8.i y.!.I.S.A.!.!.!.",
"!.#.O.@.D.B.1.6 u 8.x.n.b.z.M m m M w.b.b.x.q.x 8 <.L.!.!.!.!.!.",
"!.U.H.H.A.B.y u M w.x.b.x.q.b l z x 3.x.x.v.z.m p q d.!.!.!.!.!.",
"!.!.!.!.U.y.n 7.w.x.n.q.n x v 9.8.b z M 0.v.x.l.8.2.,.P.!.!.!.!.",
"!.!.U.f.t.j z.w.w.z.x.2.x 2.0.q.7.0.3.b b z.x.w.w.z.2.,.t.U.!.!.",
"!.!.B.n 7.q.7.5.5.w.x.x.z.0.N m m m 7.z.x.x.z.5.m 7.q.7.5.y.!.!.",
"!.!.g.=.k g y t 9.z.l.8.6.b e q e e z 5.7.w.z.8.i j r i :.t.!.!.",
"!.!.!.U.r.B.-.4.x.z.M M h g f 9 7 9 t h b M w.x.q.s N.>.U.!.!.!.",
"!.!.!.!.!.B.t m 8.6.j k ,.N.!.!.!.!.P.r.k s 2.8.5.i e.!.!.!.!.!.",
"!.!.!.!.U.p.d 0.b b >.y.A.T.Y.U.!.!.!.U.d.e.;.b 8.c X.!.!.!.!.!.",
"!.!.!.!.!.N.t 7.=.a N.!.m.k.j.s.U.S.!.!.!.P.f f 3.2.o.S.!.!.!.S.",
"!.!.!.!.!.U.y s r.a.K.S.N.h.k.s.I.I.!.!.!.P.a.a.f g i.!.!.!.!.I.",
"!.!.!.!.!.!.K.U.U.!.!.!.!.U.U.U.!.!.!.!.!.!.!.!.U.K.U.!.!.!.!.!.",
"!.!.!.!.!.!.!.!.!.!.!.!.!.!.!.!.!.!.!.!.!.!.!.!.!.!.!.!.!.!.!.!.",
"I.S.U.U.!.!.!.!.!.!.!.!.!.!.!.!.!.!.!.!.!.!.!.!.!.!.!.U.!.!.!.!.",
"!.I.S.I.!.!.!.!.!.!.!.!.S.!.!.!.!.!.!.!.!.!.!.!.S.!.!.Z.A.!.!.!."
};
