/* XPM */
static char *b313f439885e41bdbf7d232b0458acf0[] = {
/* columns rows colors chars-per-pixel */
"32 32 149 2 ",
"   c #ADE34F",
".  c #ACE24F",
"X  c #8DD24D",
"o  c #9AD84E",
"O  c #A9E14F",
"+  c #A2DD4E",
"@  c #9BD94E",
"#  c #81CA4C",
"$  c #ABE24F",
"%  c #ACE34F",
"&  c #A0DC4E",
"*  c #A3DD4E",
"=  c #A5DF4F",
"-  c #A0D14F",
";  c #AFDA51",
":  c #ABE04F",
">  c #9BD754",
",  c #97D455",
"<  c #A0DC4F",
"1  c #92D156",
"2  c #AAE150",
"3  c #A7E04F",
"4  c #A3CC4F",
"5  c #BFA25B",
"6  c #C6B45D",
"7  c #A4D450",
"8  c #9CDA4E",
"9  c #80C55B",
"0  c #5BAD64",
"q  c #70BD57",
"w  c #4FA469",
"e  c #95D550",
"r  c #A6DF4F",
"t  c #A1C94F",
"y  c #C6BA5C",
"u  c #CCB160",
"i  c #B3C053",
"p  c #ADE44F",
"a  c #A4DE4F",
"s  c #A5DE4F",
"d  c #99D84E",
"f  c #7FC657",
"g  c #76C058",
"h  c #7AC357",
"j  c #9BC74F",
"k  c #ACB355",
"l  c #9DD050",
"z  c #99D44F",
"x  c #9BCF4F",
"c  c #A2D64F",
"v  c #AAE24F",
"b  c #A1DC4F",
"n  c #A6DF50",
"m  c #A9E050",
"M  c #96D454",
"N  c #86CA56",
"B  c #A3DD51",
"V  c #8BCD58",
"C  c #ACE14F",
"Z  c #A5DB4F",
"A  c #A8E04F",
"S  c #8ED24D",
"D  c #A9AC57",
"F  c #C3A25D",
"G  c #BAAD5C",
"H  c #9ECA51",
"J  c #A4DE4E",
"K  c #91D34F",
"L  c #6DBA5B",
"P  c #78C257",
"I  c #75C057",
"U  c #A3DE4E",
"Y  c #95D64E",
"T  c #A39D54",
"R  c #BFA95A",
"E  c #C99E5F",
"W  c #B3BD58",
"Q  c #91D44D",
"!  c #88CC54",
"~  c #80CA4F",
"^  c #94D64E",
"/  c #9DDA4E",
"(  c #ADE24F",
")  c #ADE14F",
"_  c #9AD94E",
"`  c #9EDB4E",
"'  c #AAE14F",
"]  c #A3DE4F",
"[  c #81CB4C",
"{  c #98D74E",
"}  c #97D74E",
"|  c #A1DD4E",
" . c #8AD04D",
".. c #8FD34D",
"X. c #9FDB4E",
"o. c #96D74E",
"O. c #8DCF54",
"+. c #76BE5E",
"@. c #8FD152",
"#. c #A8E14F",
"$. c #77BF5E",
"%. c #79C257",
"&. c #95D356",
"*. c #ABE250",
"=. c #9AD84F",
"-. c #7DC459",
";. c #61B25D",
":. c #79C355",
">. c #80C756",
",. c #9FDB4F",
"<. c #A7DF4F",
"1. c #96D551",
"2. c #93D451",
"3. c #A1DC4E",
"4. c #A3DD4F",
"5. c #8BD04D",
"6. c #96D74D",
"7. c #85CD4D",
"8. c #AEE44F",
"9. c #8CD14D",
"0. c #9FDC4E",
"q. c #96D64E",
"w. c #92D254",
"e. c #96D64D",
"r. c #9CD94E",
"t. c #A9DD50",
"y. c #A5D750",
"u. c #ABDF4F",
"i. c #92D256",
"p. c #86C959",
"a. c #80C657",
"s. c #84C858",
"d. c #82C04D",
"f. c #B1B159",
"g. c #BAA85B",
"h. c #97BF4F",
"j. c #6BB85B",
"k. c #76C059",
"l. c #8DD052",
"z. c #98D84E",
"x. c #9CC64F",
"c. c #B9A757",
"v. c #B3B057",
"b. c #92BE4E",
"n. c #AEE34F",
"m. c #ADDF4F",
"M. c #ADDE4F",
"N. c #AADC4F",
"B. c #93D54D",
/* pixels */
"    . X o O +                       @ # $                       ",
"    % & . $ *                       = &                 - ; :   ",
"                      % > , < 1 2                   3 4 5 6 7   ",
"                      8 9 0 q w e $                 r t y u i p ",
"        a s             d f g h < &                     j k l   ",
"    $ $ z x c v         $ b n m M N B V n               C Z A   ",
"    @ S D F G H J =             K L P I @ $                   % ",
"    U Y T R E W Q +             = ! ~ ^ $                   a / ",
"        ( ( ) ( %                   %                     & / _ ",
"  ` r   '                                                 . . $ ",
"  _ 8   / .                                                     ",
"                                            ] `                 ",
"                      + % a '               + [ { }             ",
"                      | |  ...+ $ v v       . X.] +   $ @ v     ",
"                        & { { O / o.o.                O.K + O   ",
"                                a & &             $ X.+.@.& #.  ",
"  $.%.{ &.*.                                        + =.{ '     ",
"  -.;.:.>.,.'                                       . $ $       ",
"  <.1.2.} 3 .                                                   ",
"                                                                ",
"                                                                ",
"                                  $ ` $ 3.|                     ",
"                                4.O 5.6.7.o                     ",
"                              8.9.O a 0./ $                     ",
"          $ J Q = r             '             > 2 q.w.          ",
"        a + { Q e.*     r.t.y.u.  $ %       % i.p.a.s.$       $ ",
"        O O 0.8 3 %   8.d.f.g.h.r _ O       a X.j.k.l.`       z.",
"                      X.x.c.v.b.+ |             / O ` n.      & ",
"                      '   m.M.N.                                ",
". .                                                             ",
"3.@ = r                                               = $       ",
"  & ` &                 ` $                     ` $   B.{ $     "
};
