/* XPM */
static char *e3501d5be10543f782a8f84c6b727ba2[] = {
/* columns rows colors chars-per-pixel */
"32 32 196 2 ",
"   c #5B3F1E",
".  c #563D1E",
"X  c #4A3A28",
"o  c #513E2D",
"O  c #423B33",
"+  c #5D421E",
"@  c #62441D",
"#  c #6D4B1E",
"$  c #734C1D",
"%  c #7A4F1E",
"&  c #7D511C",
"*  c #4D422D",
"=  c #5C4323",
"-  c #5D452B",
";  c #544C2F",
":  c #5A472C",
">  c #5A532D",
",  c #474432",
"<  c #534430",
"1  c #594F38",
"2  c #4F5234",
"3  c #545735",
"4  c #575A34",
"5  c #694621",
"6  c #6B4C24",
"7  c #654A2A",
"8  c #67482D",
"9  c #714E25",
"0  c #754927",
"q  c #6B522B",
"w  c #615828",
"e  c #6F5A2D",
"r  c #685326",
"t  c #7C5525",
"y  c #74542B",
"u  c #785129",
"i  c #725727",
"p  c #654D32",
"a  c #6B4C33",
"s  c #6C5231",
"d  c #6C513D",
"f  c #765235",
"g  c #7E5533",
"h  c #755D31",
"j  c #5B6239",
"k  c #5E6B36",
"l  c #636531",
"z  c #666A35",
"x  c #6B6D35",
"c  c #666C3B",
"v  c #6A6B3D",
"b  c #736E37",
"n  c #7C6B39",
"m  c #6B7234",
"M  c #64733B",
"N  c #6E743B",
"B  c #67783B",
"V  c #685140",
"C  c #7B5C45",
"Z  c #655D57",
"A  c #557943",
"S  c #6F6761",
"D  c #7A726A",
"F  c #777163",
"G  c #AB3D28",
"H  c #86561C",
"J  c #89571E",
"K  c #91541D",
"L  c #845522",
"P  c #855925",
"I  c #8C5C23",
"U  c #82562A",
"Y  c #835C2B",
"T  c #8D5F28",
"R  c #955E24",
"E  c #9B5F26",
"W  c #945625",
"Q  c #865732",
"!  c #875E3C",
"~  c #955D33",
"^  c #A05F2C",
"/  c #8A602B",
"(  c #946027",
")  c #94642A",
"_  c #99662D",
"`  c #9A682F",
"'  c #9B6534",
"]  c #9B6A30",
"[  c #94613C",
"{  c #936435",
"}  c #A7692E",
"|  c #AC6A33",
" . c #A26735",
".. c #BA6F36",
"X. c #B26839",
"o. c #BB763E",
"O. c #BC7137",
"+. c #D55F3B",
"@. c #805C41",
"#. c #866441",
"$. c #8D6A48",
"%. c #936542",
"&. c #926A45",
"*. c #92694A",
"=. c #9A6B46",
"-. c #907B5F",
";. c #A36D43",
":. c #A0714D",
">. c #AE764C",
",. c #C77C46",
"<. c #D27442",
"1. c #6E843E",
"2. c #6C893F",
"3. c #748B3D",
"4. c #76893E",
"5. c #7A943D",
"6. c #688841",
"7. c #749241",
"8. c #7A9741",
"9. c #7D9B41",
"0. c #7EA144",
"q. c #6CAA53",
"w. c #66B55C",
"e. c #74BD57",
"r. c #77BF5E",
"t. c #7BBE55",
"y. c #4FA469",
"u. c #5BAD64",
"i. c #79C356",
"p. c #78C158",
"a. c #809B41",
"s. c #BE8354",
"d. c #A39D54",
"f. c #84A343",
"g. c #88AC45",
"h. c #8FB547",
"j. c #89BC4C",
"k. c #85B94B",
"l. c #93BC48",
"z. c #91B947",
"x. c #BDAB5B",
"c. c #BFA25B",
"v. c #ACB355",
"b. c #B3BD58",
"n. c #A9AC57",
"m. c #9D866C",
"M. c #868078",
"N. c #A89277",
"B. c #C9824B",
"V. c #C88045",
"C. c #CC8650",
"Z. c #D68D55",
"A. c #D98E54",
"S. c #C99E5F",
"D. c #D5915D",
"F. c #E2965D",
"G. c #E38957",
"H. c #C3A25D",
"J. c #C6B75D",
"K. c #DD9660",
"L. c #E59B62",
"P. c #EB9E64",
"I. c #CCB160",
"U. c #88CC4D",
"Y. c #96C349",
"T. c #9AC64B",
"R. c #9BCB4B",
"E. c #94CD4C",
"W. c #8ED24D",
"Q. c #94D54D",
"!. c #99D54E",
"~. c #9DDA4E",
"^. c #80C456",
"/. c #85C959",
"(. c #86C95A",
"). c #9ECA51",
"_. c #8ED052",
"`. c #94D354",
"'. c #9CD452",
"]. c #A2CB4F",
"[. c #A3D64D",
"{. c #A3DD4E",
"}. c #AADE4E",
"|. c #B3C053",
" X c #A4DE51",
".X c #AAD751",
"XX c #A7E04F",
"oX c #ADE34F",
"OX c #A9E050",
"+X c #928C85",
"@X c #909090",
"#X c #AFB0B1",
"$X c gray81",
"%X c #C6C5C4",
"&X c #D5D7D8",
"*X c #E6E6E6",
/* pixels */
"oXoXoXW.~.oX{.oXoXoXoXoXoXoXoXoXoXoX~.U.oXoXoXoXoXoXoXoXoXoXoXoX",
"oXoXoX{.oXoX{.oXoXoXoXoXoXoXoXoXoXoX{.{.oXoXoXoXoXoXoXoX[..XoXoX",
"oXoXoXoXoXoXoXoXoXoXoXoX'.`.{.`.OXoXoXoXoXoXoXoXoXoXXX].c.J.[.oX",
"oXoXoXoXoXoXoXoXoXoXoX~.^.u.e.y.`.oXoXoXoXoXoXoXoXoX{.].J.I.|.oX",
"oXoXoXoX{.{.oXoXoXoXoXoX~.t.q.e.~.{.oXoXoXoXoXoXoXoXoXoXT.v.'.oX",
"oXoXoXoX!.R.[.oXoXoXoXoX[.9.l 9.k.^. X(. XoXoXoXoXoXoXoXoX{.oXoX",
"oXoX~.W.n.H.x.).{.{.oX[.a.q $ = l A q.p.~.oXoXoXoXoXoXoXoXoXoXoX",
"oXoX{.Q.d.x.S.b.Q.{.[.9.e ) ) I $ @ k j.oXoXoXoXoXoXR.R.oXoX{.~.",
"oXoXoXoXoXoXoXoXoX[.9.e ) ] ] _ I H # m T.oXoXoXoXT.N z z.~.~.~.",
"oX~.{.oXoXoXoXoX}.8.e ) ] ] ] ] ( I J # m R.oXoX}.1.y 9 B }.oXoX",
"oX~.~.oX~.oXoXoXY.> T ] ] ` ` ` ] ) I H = 7.T.!.l.x Y r f.}.oXoX",
"oXoXoXoXoXoXoXoX3.i ) ` _ ( ) ( ` ] ( J = j N 4.1.s I 3 {.oXoXoX",
"oXoXoXoXoXoXoXl.2 L R ( ` ..o.| _ ` _ L s %.~ u , s I 3 [.oXoXoX",
"oXoXoXoXoXoXY.b * ' | E o.Z.F.A.| _ _ 9 #.B...^ o s P 4 E.oXoXoX",
"oXoXoXoXoX}.8.g p >.;.,.=.*.K.L.,. ._ 9 f ~ | O.0 s q 6._.{.oXoX",
"oXoXoXoXoX}.7.%.d :.C L.V O D.F.o.` ` P 5 ! C...8 7 ; q._.{.oXoX",
"oXr.i.!.`.OXg.n f ;.@.s.*.C D.,.E ) ] ) _ C.Z.Q o 6 ; j.!.oXoXoX",
"oXi.w.i.^.~.[.f.h o.X.G ,.D.F.B.} _ ] _ { &.! O < I ; Y.oXoXoXoX",
"oX{.`.`.Q.XXoX[.c  .<.+.G.P.L.F.o.R ) I 6 ; 1.M p P > T.oXoXoXoX",
"oXoXoXoXoXoXoXoXh.n ' B.F.F.A.V.} % $ r l 5.T.M Y 6 3.{.oXoXoXoX",
"oXoXoXoXoXoXoXoXOXg., a [ [ Q u 5   . > 0.[.f.s Y l Y.oXoXoXoXoX",
"oXoXoXoXoXoXoXoX{.7.: X Z D S 1 7 t t 9 m 2.b / 6 3.{.oXoXoXoXoX",
"oXoXoXoXoXoXoX}.8.h u D #X%X#XM.! q 7 P # * t t z Y.oXoXoXoXoXoX",
"oXoXoXoXoXoXoXoXz.z ; +X*X*X$X@X$.U 5 < X @ # m Y.oXoXoXoXoXoXoX",
"oXoXoXoXoXoX{.Q.{.Y.7.F %X&X%X+X&._ H   X + x j.OXQ.`.oXoXoXoXoX",
"oXoXoXoX{.{.!.Q.Q.{.Y.N -.N.m.#.) I & w 1.3.Y.`.(.^.(.oXoXoXoXoX",
"oXoXoXoXoXoX~.~.XXoXh.3 < p U - - L K y 9.[.{.~.w.p._.~.oXoXoX~.",
"oXoXoXoXoXoXoXoXoXT.v &.Q 0 8 %.:. .W u 8.}.oXoX~.oX~.oXoXoXoX{.",
"oXoXoXoXoXoXoXoXoXT.c c c k j v v c z 4.[.oXoXoXoXoXoXoXoXoXoXoX",
"oXoXoXoXoXoXoXoXoXoX[.[.[.[.[.[.[.[.[.{.oXoXoXoXoXoXoXoXoXoXoXoX",
"{.~.{.{.oXoXoXoXoXoXoXoXoXoXoXoXoXoXoXoXoXoXoXoXoXoXoX{.oXoXoXoX",
"oX{.~.{.oXoXoXoXoXoXoXoX~.oXoXoXoXoXoXoXoXoXoXoX~.oXoXQ.!.oXoXoX"
};
