/* XPM */
static char *_bdbf15bd62d472da526d04b7f94fef5[] = {
/* columns rows colors chars-per-pixel */
"32 32 174 2 ",
"   c #3D362F",
".  c #313131",
"X  c #3D3731",
"o  c #4A3926",
"O  c #4E3D2B",
"+  c #453A2D",
"@  c #553E27",
"#  c #7E3124",
"$  c #3A4234",
"%  c #63431C",
"&  c #6E481B",
"*  c #774B18",
"=  c #5C4123",
"-  c #5B4D27",
";  c #52422E",
":  c #4D4135",
">  c #554431",
",  c #5F4633",
"<  c #504538",
"1  c #4D5938",
"2  c #5D5E31",
"3  c #5E5B3F",
"4  c #614525",
"5  c #6D4B25",
"6  c #6B4F2F",
"7  c #65472A",
"8  c #744E21",
"9  c #794D2B",
"0  c #68572D",
"q  c #71542C",
"w  c #7C522C",
"e  c #7F582C",
"r  c #6C4B31",
"t  c #6F5E34",
"y  c #6A513E",
"u  c #6C5131",
"i  c #735239",
"p  c #52643B",
"a  c #5A6C3B",
"s  c #55693B",
"d  c #5A743E",
"f  c #646234",
"g  c #6E693C",
"h  c #667D3A",
"j  c #3F5A42",
"k  c gray30",
"l  c #58534D",
"z  c #565656",
"x  c #6E5542",
"c  c #7B5940",
"v  c #757143",
"b  c #6E6356",
"n  c gray43",
"m  c #CF2316",
"M  c #814F16",
"N  c #85541A",
"B  c #88561D",
"V  c #8A581F",
"C  c #825117",
"Z  c #8D5B22",
"A  c #86542D",
"S  c #815A2D",
"D  c #895D2A",
"F  c #935B22",
"G  c #985523",
"H  c #8D5B35",
"J  c #A55A21",
"K  c #B95F2C",
"L  c #916026",
"P  c #96642B",
"I  c #99662C",
"U  c #9A692F",
"Y  c #9C6B31",
"T  c #93643D",
"R  c #8E7E34",
"E  c #B0652C",
"W  c #AC6A30",
"Q  c #A86739",
"!  c #B56C33",
"~  c #B07037",
"^  c #BB7037",
"/  c #B7773E",
"(  c #BE763D",
")  c #CF5933",
"_  c #D56B3E",
"`  c #C2773E",
"'  c #8D6445",
"]  c #8B6E4A",
"[  c #986A44",
"{  c #90754B",
"}  c #977650",
"|  c #A96E42",
" . c #A3714B",
".. c #A87246",
"X. c #BD7A47",
"o. c #AA7852",
"O. c #857A6E",
"+. c #897E71",
"@. c #CA7F46",
"#. c #68803E",
"$. c #73853C",
"%. c #6A8E41",
"&. c #608646",
"*. c #769442",
"=. c #68A24F",
"-. c #7CA444",
";. c #7CB047",
":. c #66B55C",
">. c #77BF5E",
",. c #70BD57",
"<. c #4FA469",
"1. c #79C356",
"2. c #78C158",
"3. c #9A963B",
"4. c #A98331",
"5. c #A9A63B",
"6. c #BB8154",
"7. c #A39D54",
"8. c #84A845",
"9. c #82A745",
"0. c #9EAD43",
"q. c #91BB48",
"w. c #89B748",
"e. c #AAB540",
"r. c #B2BD47",
"t. c #B9A757",
"y. c #BDAB5B",
"u. c #BFA25B",
"i. c #ACB355",
"p. c #B3B758",
"a. c #A9AC57",
"s. c #D1864D",
"d. c #D88952",
"f. c #C99E5F",
"g. c #E18B58",
"h. c #E0955C",
"j. c #E3985F",
"k. c #C3A25D",
"l. c #C6B75D",
"z. c #E79C63",
"x. c #CCB160",
"c. c #82C54D",
"v. c #9CC74F",
"b. c #9ECF4D",
"n. c #8ED24D",
"m. c #94D54E",
"M. c #98D64E",
"N. c #9CDA4E",
"B. c #80C757",
"V. c #85C959",
"C. c #88CB58",
"Z. c #9ECA51",
"A. c #8ED152",
"S. c #94D354",
"D. c #9CD452",
"F. c #A2CB4F",
"G. c #A4C044",
"H. c #B3CC4C",
"J. c #A1D44F",
"K. c #A3DD4E",
"L. c #ACDE4F",
"P. c #ACD44A",
"I. c #B3C053",
"U. c #A5DE51",
"Y. c #AAD751",
"T. c #A7E04F",
"R. c #ADE34F",
"E. c #AAE150",
"W. c #868686",
"Q. c #A7A7A7",
"!. c #C5BFB9",
"~. c #C3C3C3",
"^. c gray83",
"/. c #E7E7E7",
/* pixels */
"R.R.R.n.N.R.K.R.R.R.R.R.R.R.R.R.R.R.N.c.R.R.R.R.R.R.R.R.R.R.R.R.",
"R.R.R.K.R.R.K.R.R.R.R.R.R.R.R.R.R.R.K.K.R.R.R.R.R.R.R.R.J.L.R.R.",
"R.R.R.R.R.R.R.R.R.R.R.R.D.S.K.S.E.R.R.R.R.R.R.R.R.R.T.F.u.l.J.R.",
"R.R.R.R.R.R.R.R.R.R.R.N.B.j ,.<.S.R.R.R.R.R.R.R.R.R.K.F.l.x.I.R.",
"R.R.R.R.K.K.R.R.R.R.R.q.O & o d w.K.R.R.R.R.R.R.R.R.R.R.v.i.D.R.",
"R.R.R.R.M.b.J.R.R.R.q.0 P P V & - &.U.C.U.R.R.R.R.R.R.R.R.K.R.R.",
"R.R.N.n.a.k.y.Z.K.w.f D Y Y L B * - =.2.N.R.R.R.q.a q.R.R.R.R.R.",
"R.R.K.m.7.y.f.p.;.7 P Y Y Y Y P Z B = h R.R.R.R.; V O R.R.R.K.N.",
"R.R.R.R.R.R.R.R.a L Y Y Y Y Y Y F Z M o R.R.R.8.6 8 2 R.R.K.N.N.",
"R.N.K.R.R.R.R.*.0 I Y Y L L I Y U L B O a a q.. P O 8.R.R.R.R.R.",
"R.N.N.R.N.R.R.a 5 Z L L J ^ F P Y P Z O ^ J @ . P O 8.R.R.R.R.R.",
"R.R.R.R.R.R.$.  w W F ( z.z.d.W Y P O o.@.! 9 . P O 8.R.R.R.R.R.",
"R.R.R.R.R.R., ,  .' s.' x z.z.@.Y P O H 9 ( E . S h b.R.R.R.R.R.",
"R.R.R.R.R.R.y y o.x z.x . z.z.` Y U 8 = ..d.E . q -.R.R.N.R.R.R.",
"R.R.R.R.R.R.g r Q c 6.' x j.! F Y Y P W j.X.O > 5 8.R.A.m.K.R.R.",
"R.R.R.R.R.R.q.q ~ Q # d.z.h./ I Y Y I .. .i . Y 5 9.N.>.A.K.R.R.",
"R.>.1.M.S.E.R.a A ) m g.z.z.z.^ P I Z & 1 8.1 Y % 8.K.N.M.R.R.R.",
"R.1.:.1.B.N.R.q.f K _ z.z.h.s.~ C N 4 o q.q.t L 2 b.R.R.R.R.R.R.",
"R.K.S.S.m.T.R.R.R.. O H T w 5 % o o $.b.b.$.S 5 *.R.R.R.R.R.R.R.",
"R.R.R.R.R.R.R.R.q.; + k z z : ; N N = $.$.u Z . R.R.R.R.R.R.R.R.",
"R.R.R.R.R.R.R.*.t A b ~.^.Q.O.T > 6 Z & ; L 4 8.R.R.R.R.R.R.R.R.",
"R.R.R.R.R.R.R.R.a . n /./.^.W.] N % . . * % 8.R.R.R.R.R.R.R.R.R.",
"R.R.R.R.R.R.r.P.q.#.l !.^.~.+.[ e N o @ $ %.H.e.R.R.R.R.R.R.R.R.",
"R.R.R.R.R.R.4.$.{ 7 X ] } z < >   O ' [ q *.H.J R.R.R.R.R.R.R.R.",
"R.R.R.R.R.R.G.p [ W 9 3.O o.[ A 1 8.v | G R R.0.E.m.S.R.R.R.R.R.",
"R.R.R.R.K.K.M.m.%.4.R q.s T T A *.R.R.5.5.R.R.S.V.B.V.R.R.R.R.R.",
"R.R.R.R.R.R.N.N.T.R.R.R.c.3 3 p K.N.R.R.R.R.K.N.:.2.A.N.R.R.R.N.",
"R.R.R.R.R.R.R.R.R.R.R.N.v.t.p.q.K.K.R.R.R.R.R.R.N.R.N.R.R.R.R.K.",
"R.R.R.R.R.R.R.R.R.R.R.R.R.L.L.L.R.R.R.R.R.R.R.R.R.R.R.R.R.R.R.R.",
"R.R.R.R.R.R.R.R.R.R.R.R.R.R.R.R.R.R.R.R.R.R.R.R.R.R.R.R.R.R.R.R.",
"K.N.K.K.R.R.R.R.R.R.R.R.R.R.R.R.R.R.R.R.R.R.R.R.R.R.R.K.R.R.R.R.",
"R.K.N.K.R.R.R.R.R.R.R.R.N.R.R.R.R.R.R.R.R.R.R.R.N.R.R.m.M.R.R.R."
};
