/* XPM */
static char *_c63ed7e584d408fa037555f062a72ee[] = {
/* columns rows colors chars-per-pixel */
"32 32 176 2 ",
"   c #3D362F",
".  c #313131",
"X  c #3D3731",
"o  c #5A3F1F",
"O  c #4A3926",
"+  c #4D3D2B",
"@  c #43392C",
"#  c #583F2C",
"$  c #523C22",
"%  c #7E3124",
"&  c #63431C",
"*  c #6E481B",
"=  c #774B18",
"-  c #5C4123",
";  c #5B4D27",
":  c #52422E",
">  c #4D4135",
",  c #554431",
"<  c #5F4633",
"1  c #4D5938",
"2  c #5D5E31",
"3  c #525A34",
"4  c #614525",
"5  c #6D4B25",
"6  c #6A4E2E",
"7  c #654A2A",
"8  c #744E21",
"9  c #794D2B",
"0  c #68572D",
"q  c #72552C",
"w  c #7C522C",
"e  c #7F582C",
"r  c #6C4B31",
"t  c #6F5E34",
"y  c #6A513E",
"u  c #6C5131",
"i  c #765535",
"p  c #4C613A",
"a  c #5A6C3B",
"s  c #54693B",
"d  c #5A743E",
"f  c #78742D",
"g  c #646234",
"h  c #6A683A",
"j  c #667D3A",
"k  c #6A7034",
"l  c #3F5A42",
"z  c gray30",
"x  c #58534D",
"c  c gray34",
"v  c #6E5542",
"b  c #7B5940",
"n  c #6E6356",
"m  c #787847",
"M  c gray43",
"N  c #CF2316",
"B  c #814F16",
"V  c #85541A",
"C  c #88561D",
"Z  c #8A581F",
"A  c #825117",
"S  c #8D5B22",
"D  c #86552B",
"F  c #815A2D",
"G  c #8A5728",
"H  c #935B22",
"J  c #8D5B35",
"K  c #875E3E",
"L  c #A55A21",
"P  c #B95F2C",
"I  c #916026",
"U  c #96642B",
"Y  c #99662C",
"T  c #9A692F",
"R  c #9A742D",
"E  c #9C6B31",
"W  c #93653D",
"Q  c #B0652C",
"!  c #AC6A30",
"~  c #A8673B",
"^  c #B46B32",
"/  c #B07037",
"(  c #BB7037",
")  c #BE763D",
"_  c #B7773E",
"`  c #CF5933",
"'  c #D56B3E",
"]  c #C2773E",
"[  c #8F6545",
"{  c #8E6E47",
"}  c #966B44",
"|  c #90754B",
" . c #836E54",
".. c #977650",
"X. c #A3714B",
"o. c #A87246",
"O. c #B97744",
"+. c #AA7852",
"@. c #857A6E",
"#. c #897E71",
"$. c #C67B42",
"%. c #CA7F46",
"&. c #73853C",
"*. c #7C8633",
"=. c #608646",
"-. c #769442",
";. c #68A24F",
":. c #7CA444",
">. c #7CB047",
",. c #66B55C",
"<. c #77BF5E",
"1. c #70BD57",
"2. c #4FA469",
"3. c #79C356",
"4. c #78C158",
"5. c #959E3C",
"6. c #A88830",
"7. c #A08330",
"8. c #A99735",
"9. c #969541",
"0. c #BB8154",
"q. c #A39D54",
"w. c #84A845",
"e. c #82A745",
"r. c #97A944",
"t. c #87B648",
"y. c #8DB948",
"u. c #91BB49",
"i. c #BCAA5B",
"p. c #BCA559",
"a. c #ACB355",
"s. c #B3B758",
"d. c #A9AC57",
"f. c #D1864D",
"g. c #D88952",
"h. c #C99E5F",
"j. c #E18B58",
"k. c #E0955C",
"l. c #E3985F",
"z. c #C3A25D",
"x. c #C6B75D",
"c. c #E79C63",
"v. c #CCB160",
"b. c #81CA4C",
"n. c #9CC74F",
"m. c #9ECF4D",
"M. c #8ED24D",
"N. c #94D54E",
"B. c #98D64E",
"V. c #9DDA4E",
"C. c #80C757",
"Z. c #85C959",
"A. c #88CB58",
"S. c #9ECA51",
"D. c #8ED152",
"F. c #94D354",
"G. c #9CD553",
"H. c #A2CB4F",
"J. c #ABC445",
"K. c #B5C04B",
"L. c #B3CC4C",
"P. c #A1D44F",
"I. c #A3DD4E",
"U. c #ACDE4F",
"Y. c #B3C053",
"T. c #A5DE51",
"R. c #AAD751",
"E. c #A7E04F",
"W. c #ADE34F",
"Q. c #AAE150",
"!. c #868686",
"~. c #A7A7A7",
"^. c #C5BFB9",
"/. c #C3C3C3",
"(. c gray83",
"). c #E7E7E7",
/* pixels */
"W.W.W.M.V.W.I.W.W.W.W.W.W.W.W.W.W.W.V.b.W.W.W.W.W.W.W.W.W.W.W.W.",
"W.W.W.I.W.W.I.W.W.W.W.W.W.W.W.W.W.W.I.I.W.W.W.W.W.W.W.W.P.U.W.W.",
"W.W.W.W.W.W.W.W.W.W.W.W.G.F.I.F.Q.W.W.W.W.W.W.W.W.W.E.H.p.x.P.W.",
"W.W.W.W.W.W.W.W.W.W.W.V.C.l 1.2.F.W.W.W.W.W.W.W.W.W.I.H.x.v.Y.W.",
"W.W.W.W.I.I.W.W.W.W.W.u.+ * O d t.I.W.W.W.W.W.W.W.W.W.W.n.a.G.W.",
"W.W.W.W.B.m.P.W.W.W.u.0 U U Z * ; =.T.A.T.W.W.W.W.W.W.W.W.I.W.W.",
"W.W.V.M.d.z.i.S.I.y.g G E E I C = ; ;.4.V.W.W.W.u.a u.W.W.W.W.W.",
"W.W.I.N.q.i.h.s.>.7 U E E E E U S C - j W.W.W.W.: Z + W.W.W.I.V.",
"W.W.W.W.W.W.W.W.a I E E E E E E H S B O W.W.W.w.6 8 2 W.W.I.V.V.",
"W.V.I.W.W.W.W.-.0 Y E E I I Y E T I C + a a u.. U + w.W.W.W.W.W.",
"W.V.V.W.V.W.W.a 5 S I I L ( H U E U S + ( L # . U + w.W.W.W.W.W.",
"W.W.W.W.W.W.&.  w ! H ) c.c.g.! E U + +.%.^ 9 . U + w.W.W.W.W.W.",
"W.W.W.W.W.W.< < X.[ f.[ v c.c.%.E U + J 9 ) Q . F j m.W.W.W.W.W.",
"W.W.W.W.W.W.y y +.v c.v . c.c.] E T 8 - o.g.Q . q :.W.W.V.W.W.W.",
"W.W.W.W.W.W.h r ~ b 0.} v l.^ H E E U ! l.O.+ , 5 w.W.D.N.I.W.W.",
"W.W.W.W.W.W.u.q / ~ % g.c.k._ Y E E Y o.X.i . E 5 e.V.<.D.I.W.W.",
"W.<.3.B.F.Q.W.a D ` N j.c.c.c.( U Y S * 1 w.1 E & w.I.V.B.W.W.W.",
"W.3.,.3.C.V.W.u.g P ' c.c.k.f./ A V 4 O u.u.t I 2 m.W.W.W.W.W.W.",
"W.I.F.F.N.E.W.W.W.. + J W w 5 & O O &.m.m.&.F 5 -.W.W.W.W.W.W.W.",
"W.W.W.W.W.W.W.W.u.: @ z c c > : V V - &.&.u S . W.W.W.W.W.W.W.W.",
"W.W.W.W.W.W.W.-.t D n /.(.~.@.W , 6 S * : I 4 w.J.J.W.W.W.W.W.W.",
"W.W.W.W.W.$.W.W.a . M ).).(.!.{ V & . . = & w.W.W.W.W.W.W.W.W.W.",
"W.W.W.W.W.K.L.u.w.w.x ^.(./.#.} e V o o < # &.6.6.W.W.W.W.W.W.W.",
"W.W.W.W.W.$.r.| } 1 X x .. .i 6   + *.3 K ] G W.J.W.W.W.W.W.W.W.",
"W.W.W.W.W.K.r.O.( @ $ . + h g &.+ 9 R 5.9.^ 8.G.Q.N.F.W.W.W.W.W.",
"W.W.W.W.I.I.B.5.7.I.u.| W q f k X.J g u.W.W.W.F.Z.C.Z.W.W.W.W.W.",
"W.W.W.W.W.W.V.V.E.W.W.-.p m i.u.a s y.W.W.W.I.V.,.4.D.V.W.W.W.V.",
"W.W.W.W.W.W.W.W.W.W.W.V.n.p.s.u.I.I.W.W.W.W.W.W.V.W.V.W.W.W.W.I.",
"W.W.W.W.W.W.W.W.W.W.W.W.W.U.U.U.W.W.W.W.W.W.W.W.W.W.W.W.W.W.W.W.",
"W.W.W.W.W.W.W.W.W.W.W.W.W.W.W.W.W.W.W.W.W.W.W.W.W.W.W.W.W.W.W.W.",
"I.V.I.I.W.W.W.W.W.W.W.W.W.W.W.W.W.W.W.W.W.W.W.W.W.W.W.I.W.W.W.W.",
"W.I.V.I.W.W.W.W.W.W.W.W.V.W.W.W.W.W.W.W.W.W.W.W.V.W.W.N.B.W.W.W."
};
