/* XPM */
static char *_6943110513f4116906353f48e7ffe58[] = {
/* columns rows colors chars-per-pixel */
"32 32 188 2 ",
"   c #4D3D2B",
".  c #523D24",
"X  c #493E32",
"o  c #734918",
"O  c #75501F",
"+  c #7B501B",
"@  c #4F422D",
"#  c #554026",
"$  c #5C442D",
"%  c #5D492A",
"&  c #4F4131",
"*  c #48413A",
"=  c #4E4C32",
"-  c #5C4733",
";  c #574735",
":  c #5B5731",
">  c #654623",
",  c #6C4B27",
"<  c #664D2F",
"1  c #714C2B",
"2  c #724D25",
"3  c #695626",
"4  c #65522A",
"5  c #6D512A",
"6  c #6E582D",
"7  c #725724",
"8  c #7A5224",
"9  c #73522A",
"0  c #7C5C2C",
"q  c #7A542A",
"w  c #634B33",
"e  c #6D4D34",
"r  c #655E31",
"t  c #6C5C32",
"y  c #6C5336",
"u  c #705330",
"i  c #7C5534",
"p  c #7A583B",
"a  c #566536",
"s  c #636A36",
"d  c #676A39",
"f  c #686634",
"g  c #776633",
"h  c #6D7031",
"j  c #62733B",
"k  c #6E7338",
"l  c #6B7A3C",
"z  c #727537",
"x  c #747F3C",
"c  c #554E48",
"v  c #585146",
"b  c #5B5855",
"n  c #6B5645",
"m  c #785F4D",
"M  c #7E5F45",
"N  c #7F6046",
"B  c #686460",
"V  c #626361",
"C  c #84551D",
"Z  c #855721",
"A  c #875925",
"S  c #8C5B23",
"D  c #825C2C",
"F  c #84532B",
"G  c #935E25",
"H  c #855D32",
"J  c #8C5F32",
"K  c #A2563A",
"L  c #8F6029",
"P  c #96642B",
"I  c #9A652C",
"U  c #9A692F",
"Y  c #88613E",
"T  c #8A6335",
"R  c #9C6A30",
"E  c #9B653C",
"W  c #9B693B",
"Q  c #92603A",
"!  c #A3662D",
"~  c #A76430",
"^  c #A76A30",
"/  c #AB6B33",
"(  c #A06539",
")  c #AE6D3C",
"_  c #B36B35",
"`  c #B57339",
"'  c #CE4C31",
"]  c #855E41",
"[  c #86674E",
"{  c #8F6B4D",
"}  c #9B6A43",
"|  c #9F6F4A",
" . c #8E7043",
".. c #976F50",
"X. c #A36C41",
"o. c #A96E41",
"O. c #AD7040",
"+. c #A67145",
"@. c #BA7442",
"#. c #BB7947",
"$. c #A27450",
"%. c #B97F54",
"&. c #C37D46",
"*. c #CA7D4E",
"=. c #DD7E50",
"-. c #6B843E",
";. c #778236",
":. c #74823B",
">. c #79823A",
",. c #788C3D",
"<. c #7F993F",
"1. c #788940",
"2. c #758B41",
"3. c #7E9941",
"4. c #7B9641",
"5. c #6CB95B",
"6. c #61B25D",
"7. c #70BD57",
"8. c #77BF5E",
"9. c #4FA469",
"0. c #5BAD64",
"q. c #75C057",
"w. c #7BC456",
"e. c #76C059",
"r. c #7DC459",
"t. c #829D41",
"y. c #839241",
"u. c #BD8154",
"i. c #A39D54",
"p. c #87A844",
"a. c #87A643",
"s. c #82B047",
"d. c #8CB546",
"f. c #8DB748",
"g. c #8DBC49",
"h. c #93B640",
"j. c #92B846",
"k. c #9FBD40",
"l. c #93BD48",
"z. c #A9AC57",
"x. c #BDAB5B",
"c. c #BFA25B",
"v. c #ACB355",
"b. c #B3BD58",
"n. c #C6824C",
"m. c #CB844C",
"M. c #D0864C",
"N. c #CC8B5A",
"B. c #DD8451",
"V. c #D68C53",
"C. c #C99E5F",
"Z. c #DB9057",
"A. c #DA955F",
"S. c #E2935B",
"D. c #C3A25D",
"F. c #C6B75D",
"G. c #E69B61",
"H. c #CCB160",
"J. c #81CA4D",
"K. c #8DC14A",
"L. c #9FC047",
"P. c #95C149",
"I. c #99C44A",
"U. c #9CCC4C",
"Y. c #8DD24D",
"T. c #94D54E",
"R. c #99D54E",
"E. c #9CDA4E",
"W. c #80C657",
"Q. c #8BCC54",
"!. c #85C959",
"~. c #86C958",
"^. c #9ECA51",
"/. c #8ED152",
"(. c #94D353",
"). c #9BD453",
"_. c #A2CB4F",
"`. c #A1C045",
"'. c #A2D34D",
"]. c #A3DD4E",
"[. c #A9DE4E",
"{. c #B3C053",
"}. c #A5DE50",
"|. c #ACDD51",
" X c #A4D450",
".X c #A7E04F",
"XX c #ADE34F",
"oX c #AAE150",
/* pixels */
"XXXXXXY.E.XX].XXXXXXXXXXXXXXXXXXXXXXE.J.XXXXXXXXXXXXXXXXXXXXXXXX",
"XXXXXX].XXXX].XXXXXXXXXXXXXXXXXXXXXX].].XXXXXXXXXXXXXXXX'.|.XXXX",
"XXXXXXXXXXXXXXXXXXXXXXXX).(.].(.oXXXXXXXXXXXXXXXXXXX.X_.c.F. XXX",
"XXXXXXXXXXXXXXXXXXXXXXE.W.0.7.9.(.XXXXXXXXXXXXXXXXXX]._.F.H.{.XX",
"XXXXXXXX].].XXXXXXXXXXXXE.r.e.w.].].XXXXXXXXXXXXXXXXXXXXU.v.).XX",
"XXXXXXXXR.U.'.XXXXXXXXXXXX].}.oX(.~.}.Q.}.XXXXXXXXXXXXXXXX].XXXX",
"XXXXE.Y.z.D.x.^.].].XXXXXXXXXXXXT.5.w.q.E.XXXXXXXXXXXXXXXXXXXXXX",
"XXXX].T.i.x.C.b.T.].XXXXXXXXXXXX].Q.J.T.XXXXXXXXXXXXXXXXXXXX].E.",
"XXXXXXXXXXXXXXXXXXXXXXXXXXXXXXXXXXXXXXXXXXXXXXXXXXXXXXXXXX].E.E.",
"XXE.].XXXXXXXXXXXXXXXXXXXXXXXXXXXXXXXXXXXXXXXXXXXXXXXXXXXXXXXXXX",
"XXE.E.XXE.XXXXXXXXXXXXXXXXXXXXXXXXXXXXXXXXXXXXXXXXXXXXXXXXXXXXXX",
"XXXXXXXXXXXXXXXXXXXXXXXXXXXXXXXXXXXXXXXXXXXX].E.XXXXXXXXXXXXXXXX",
"XXXXXXXXXXXXXXXXXXXXXX].XX].XXXXXXXXXXXXXXXX].J.R.T.XXXXXXXXXXXX",
"XXXXXXXXXXXXXXXX[.'.].].].Y.Y.].XXXXXXXXXXXXXXE.].].XXXXE.XXXXXX",
"XXXXXXXXXXXXXX[.I.,.<.l.E.R.R.XXE.T.T.XXXXXXXXXXXXXXXXQ.T.].XXXX",
"XXXXXXXXXXXXXXI.>.7 3 h t.I.XXXX].].].XXXXXXXXXXXXXXE.8./.].XXXX",
"XX8.w.R.(.|.I.>.0 L A O 3 ;.I.XXXXXXXXXX[.U.'.XXXXXX].E.R.XXXXXX",
"XXr.6.w.r.g.>.0 P R I S C 7 ;.I.XXXXXX[.d.>.t.'.XXXXXXXXXXXXXXXX",
"XX].(.(.g.>.0 P R R U P G Z 7 ;.I.XXXXR.x 9 r j.XXXXXXXXXXXXXXXX",
"XXXXXX[.p.4 P R I P P U U P Z 4 j ,.p.3.g 9 z I.XXXXXXXXXXXXXXXX",
"XXXXXXg.s 8 G I ! / ^ I U P A 9 p J t : 0 6 t.].XXXXXXXXXXXXXXXX",
"XXXXl.d - ! I ! m.Z.V.` I P q Y #._ F > 9 k P.XXXXXXXXXXXXXXXXXX",
"XX[.:.i w X.O.&.u.$.N.m.^ P 9 i E / ~ 1 < l U.XXXXXXXXXXXXXXXXXX",
"XX[.l } ; n [ %.m c ] @.^ U A , Q &._ 1 < :.U.XXXXXXXXXXXXXXXXXX",
"XX[.2.Y e ] { N...n E ! P U P I n.n.T 5 9 z I.).oXT.(.XXXXXXXXXX",
"XXXXU.>.H @.K *.A.N.n./ P P I W |  .y.k 0 5 t.Q.~.W.~.XXXXXXXXXX",
"XXXX[.1.} B.' =.G.G.G.V.` G S 8 % s g.:.H u 4.R.5.e./.E.XXXXXXE.",
"XXXX].d ) S.B.S.G.G.S.M.` P C o . a d.x D 5 3.].E.XXE.XXXXXXXX].",
"XXXX[.3.w ( o.o.o.o.o.W H 8 >   X ; = % 9 4 a.].XXXXXXXXXXXXU.I.",
"XXXXd.t - & - * b B c X $ % > 2 +.n.X.p $ l U.XXXXXXXXXXXXl.f r ",
"].R.j $ - & D y b V v > + , . # y N M p t a.].XXXXXXXX].XX-.@   ",
"XXE.K.s.f.j.L.`.f.f.j.k.h.j.f.f.d.d.d.d.P.].XXXXE.XXXXT.R.U.f.f."
};
