/* XPM */
static char *_acae0307a514ca6ab40e407a1c3d282[] = {
/* columns rows colors chars-per-pixel */
"32 32 176 2 ",
"   c #020101",
".  c #2A1A17",
"X  c #301D1B",
"o  c #17220B",
"O  c #0C3809",
"+  c #163A0E",
"@  c #1D3710",
"#  c #0B2B07",
"$  c #31231B",
"%  c #392B1F",
"&  c #322A1D",
"*  c #263C13",
"=  c #3A2D21",
"-  c #352F20",
";  c #393120",
":  c #4B3329",
">  c #473427",
",  c #533B2D",
"<  c #593C31",
"1  c #0E470C",
"2  c #124C0B",
"3  c #12550F",
"4  c #145D0E",
"5  c #39561C",
"6  c #176C11",
"7  c #156510",
"8  c #197413",
"9  c #1B7E13",
"0  c #177112",
"q  c #36791E",
"w  c #2B781A",
"e  c #434523",
"r  c #724B3E",
"t  c #4B6E26",
"y  c #4A722C",
"u  c #67753F",
"i  c #795743",
"p  c #7A6441",
"a  c #915F4F",
"s  c #876A46",
"d  c #93634D",
"f  c #936C4D",
"g  c #996B4F",
"h  c #98654E",
"j  c #857344",
"k  c #867A43",
"l  c #8C7B47",
"z  c #8B7948",
"x  c #93744B",
"c  c #99784C",
"v  c #966451",
"b  c #9B6751",
"n  c #9C6C52",
"m  c #9E7750",
"M  c #A06E53",
"N  c #A47453",
"B  c #AA7655",
"V  c #A57953",
"C  c #AA7A55",
"Z  c #1B8213",
"A  c #1F8C15",
"S  c #1F9416",
"D  c #238911",
"F  c #219A16",
"G  c #24A115",
"H  c #2BA915",
"J  c #2BB418",
"K  c #2FBB18",
"L  c #37A719",
"P  c #528D2B",
"I  c #5E962E",
"U  c #64882E",
"Y  c #48B025",
"T  c #6CA534",
"R  c #70AD34",
"E  c #6EB534",
"W  c #2DC118",
"Q  c #2EC818",
"!  c #32C418",
"~  c #33CC18",
"^  c #36D218",
"/  c #39D418",
"(  c #3BDC19",
")  c #3EE218",
"_  c #41E618",
"`  c #45EB18",
"'  c #49EE1B",
"]  c #49F019",
"[  c #52ED24",
"{  c #55EC29",
"}  c #58EF29",
"|  c #53F124",
" . c #5CF12C",
".. c #5CEC30",
"X. c #69EE3D",
"o. c #66EF39",
"O. c #63F233",
"+. c #6BF23C",
"@. c #7E8540",
"#. c #769243",
"$. c #61B25D",
"%. c #77BF5E",
"&. c #79C356",
"*. c #7DC459",
"=. c #6FEF42",
"-. c #6FF240",
";. c #73F343",
":. c #7AF24B",
">. c #8A8445",
",. c #858C41",
"<. c #888942",
"1. c #9A864C",
"2. c #978C4A",
"3. c #8A9445",
"4. c #8A9845",
"5. c #98974B",
"6. c #A08E4D",
"7. c #A4914E",
"8. c #AD8356",
"9. c #AC8C55",
"0. c #AB8756",
"q. c #B18357",
"w. c #B38758",
"e. c #B48B59",
"r. c #B98D59",
"t. c #A99552",
"y. c #B6925A",
"u. c #BA935A",
"i. c #BD9A5C",
"p. c #96A449",
"a. c #97AC48",
"s. c #9BAE49",
"d. c #8EBB46",
"f. c #95B346",
"g. c #95BF4F",
"h. c #96BB47",
"j. c #BFA35C",
"k. c #BAA859",
"l. c #B2B158",
"z. c #C19E5D",
"x. c #C2A45E",
"c. c #C6AA5F",
"v. c #C6B45D",
"b. c #C7AE60",
"n. c #C8AF60",
"m. c #C8B060",
"M. c #85C849",
"N. c #9DC64A",
"B. c #9DCC49",
"V. c #96C846",
"C. c #8DD24D",
"Z. c #94D44E",
"A. c #9AD54D",
"S. c #9CDA4E",
"D. c #9CD047",
"F. c #87CB55",
"G. c #8FD152",
"H. c #95D354",
"J. c #9BD754",
"K. c #A2CB4B",
"L. c #A4D34C",
"P. c #A3DC4E",
"I. c #ABDE4F",
"U. c #A5D650",
"Y. c #ACDC51",
"T. c #83F453",
"R. c #8BF55B",
"E. c #A7E04F",
"W. c #ADE34F",
"Q. c #ABE250",
"!. c #93F564",
"~. c #A3F673",
"^. c #ABF77B",
"/. c #BDF88D",
"(. c #B4F784",
"). c #C0F890",
/* pixels */
"W.W.W.C.S.W.P.W.W.W.W.W.W.W.W.W.W.W.S.M.W.W.W.W.W.W.W.W.W.W.W.W.",
"W.W.W.P.W.W.P.W.W.W.W.W.W.W.W.W.W.W.I.P.W.W.W.W.W.W.W.W.L.Y.W.W.",
"W.W.W.W.W.W.W.W.W.W.W.W.J.H.P.H.Q.W.W.W.W.W.W.W.W.W.E.K.j.v.U.W.",
"M.~ ' T.] ] ] ] ;.T./.).).).).).).).).).).).~.+.O.] ] ] | +._ Y ",
"E ) ] ] ] ] !.|  .+.R.^.^.~.R.(./.!.~.~./.!.R. . .+.;.] ] ] ` H ",
"R ) _ :._ ] ` ' ;. . .O.O.]  .O.+.O.]  .O.O.| +.| ` ` ` X.{ _ L ",
"I H ~ W _ | | ] ] ] -.| ;.] +.O.] R.] O.+.O.O.] ] ] O.` ^ Q ~ 8 ",
"V.w 6 K _ -.| _ o.X.' ` `  .] ] ] ] } | ` ' [ :.` ` :.' _ A 7 P ",
"W.B.* D _ _ _ ^ ) ' =.( ( _ ` ` { ` ` _ / ..+._ ( ^ ` _ ( # t S.",
"W.S.B.8 ~ ^ ^ ! ( ( _ ~ ^ ) ) [ :._ ( ) ! ) ) ( ^ W ~ ^ G I W.W.",
"W.S.S.T 3 Z S 6 F ! ^ G Z J ~ ^ ~ ^ ! F 9 W ~ J 9 Z A 7 q D.W.W.",
"W.W.W.W.U * @ o + 4 6 8 1 O 7 8 6 6 4 O 3 0 7 2 + o @ 5 V.W.W.W.",
"W.W.W.W.W.W.W.W.V.e ; $ = , = & $ - , > % & ; y Z.Z.W.W.W.W.W.W.",
"W.W.W.W.W.W.W.W.P.s B r.u.N B n b C n 8.r.q.h 3.P.P.W.W.S.W.W.W.",
"W.W.W.W.W.W.W.W.f.g w.e.N v a N e.b a b 8.y.N l W.W.W.G.Z.P.W.W.",
"W.W.W.W.W.W.W.W.3.C z.i.e.w.x.e.u.i.i.q.y.x.r.x B.W.S.%.G.P.W.W.",
"W.%.&.A.H.Q.L.N.s q.x.m.b.c.y.C q.B x.c.m.b.i.n 3.L.P.S.A.W.W.W.",
"W.*.$.&.F.V.1.p d e.x.m.b.x.N B C N 0.b.b.c.i.N i c p.W.W.W.W.W.",
"W.I.H.H.Z.P.j g q.i.b.n.x.u.C v b M 8.i.c.n.x.e.B d f.W.W.W.W.W.",
"W.W.W.W.L.4.0.u.z.x.b.e.n d , : , : r b B j.c.x.i.e.2.N.L.W.W.W.",
"W.W.L.5.t.9.i.i.r.i.c.i.e.c         % e.y.x.c.r.u.i.i.7.t.f.W.W.",
"W.W.L.m V e.C V C i.x.z.i.V X . . . < u.z.x.x.q.N C 8.q.V 5.W.W.",
"W.W.L.a.,.l k x u.x.u.e.C N d d d d b C q.e.z.x.0.k >.s f.a.W.W.",
"W.W.W.W.L.L.<.0.x.z.V m l 1.6.7.2.7.1.l x g u.x.i.x N.B.I.W.W.W.",
"W.W.W.W.W.B.j V q.q.x >.s.L.L.L.L.L.L.K.2.>.V e.q.d #.W.W.W.W.W.",
"W.W.W.W.I.d.j i.m f 4.K.A.Y.U.I.W.W.W.W.L.h.l x y.e.u W.W.W.W.W.",
"W.W.W.W.W.D.j N >.<.f.W.M.l.k.g.I.S.W.W.W.L.@.,.f B #.S.W.W.W.S.",
"W.W.W.W.W.W.3.p.h.L.L.S.N.k.l.g.P.P.W.W.W.I.K.K.4.2.d.W.W.W.W.P.",
"W.W.W.W.W.W.P.W.W.W.W.W.W.I.I.I.W.W.W.W.W.W.W.W.W.P.W.W.W.W.W.W.",
"W.W.W.W.W.W.W.W.W.W.W.W.W.W.W.W.W.W.W.W.W.W.W.W.W.W.W.W.W.W.W.W.",
"P.S.I.I.W.W.W.W.W.W.W.W.W.W.W.W.W.W.W.W.W.W.W.W.W.W.W.I.W.W.W.W.",
"W.P.S.P.W.W.W.W.W.W.W.W.S.W.W.W.W.W.W.W.W.W.W.W.S.W.W.Z.A.W.W.W."
};
